<svg id="Layer_1" data-name="Layer 1" xmlns="http://www.w3.org/2000/svg" viewBox="0 0 603.83 227.65"><defs><style>.cls-1{fill:#e80500;}.cls-2{fill:#439e18;}.cls-3{fill:#fff;}.cls-4{fill:#46a01c;}.cls-5{fill:#48a01e;}</style></defs><path class="cls-1" d="M225.9,520.6a5.34,5.34,0,0,0,2.7.3h40.6c1.1-.1,1.4.4,1.2,1.4-.8,4.7-1.5,9.5-2.2,14.2-.3,1.7-.6,3.3-.8,5-.1,1-.6,1.4-1.5,1.3H191a4.44,4.44,0,0,1-2.5-.3c.4-2.9.9-5.8,1.4-8.7.4-2.4.9-4.7,1.2-7.1a5.18,5.18,0,0,1,1.8-3.4c9.2-8.2,18.3-16.5,27.5-24.7,6.6-5.9,13.2-11.9,19.7-17.9a50.05,50.05,0,0,0,7.5-8.4,25.1,25.1,0,0,0,4.7-13.1c.3-6-2.7-10.1-8.6-11.5a29.24,29.24,0,0,0-28,9.2,4.93,4.93,0,0,1-1.8,1.7c-5.1-4.1-10.3-8.3-15.5-12.5a48.83,48.83,0,0,1,10.4-10.4c11.5-8.6,24.5-12,38.8-11.1a41,41,0,0,1,13,2.9c12.3,5,18,16,16.7,28.8-1.3,13-7.3,23.6-16.5,32.7-7.4,7.3-15.3,14-23,21.1C233.9,513.5,230,516.9,225.9,520.6Z" transform="translate(-180 -368.06)"/><path class="cls-1" d="M367.5,426.4C348.4,450,329.7,473,311,496.1a2.83,2.83,0,0,0,2.1.4h23.3c2.3,0,2.4,0,2.7-2.4l2.7-16.8c.1-.5.1-.9.2-1.4.1-.8.5-1.3,1.4-1.2a4.82,4.82,0,0,0,1.2,0h20.5c-1.1,7.3-2.2,14.4-3.3,21.6a27.88,27.88,0,0,0,5.7.2h9.6c1.7,0,1.7.1,1.5,1.6-.9,6.1-1.8,12.2-2.9,18.2-.4,2.3.1,2.1-2.5,2.1H360c-1.3,0-1.8.3-2,1.7-1,7-2.2,14-3.3,21.1-.2,1-.3,1.8-1.7,1.8-7.2-.1-14.4,0-21.6-.1-.1,0-.3-.1-.7-.2,1.2-7.9,2.5-15.9,3.8-24.2H278.1c.7-4.4,1.5-8.4,1.9-12.6s2.2-7.2,4.8-10.3c18.5-22.2,36.9-44.6,55.3-66.9a5.49,5.49,0,0,1,4.8-2.3c6.6.1,13.1,0,19.7,0Z" transform="translate(-180 -368.06)"/><path class="cls-2" d="M550.9,369a53.08,53.08,0,0,1-1.9,9.8c-3.8,11.4-11.7,18.6-22.9,22.4a74.93,74.93,0,0,1-18.1,3.3c-8.1.6-16.1.4-24.2.4-9.5,0-19-.1-28.6.1a83.08,83.08,0,0,0-22.7,3.3c-9.3,2.7-17,7.6-22.4,15.8a4.35,4.35,0,0,1-.6.7c0,.1-.1.1-.3.1a38.19,38.19,0,0,1,6-18.2c4.8-7.2,11.6-11.6,19.7-14.1a66.52,66.52,0,0,1,15.3-2.8c4.9-.4,9.9-.6,14.9-.6,13,0,26.1.1,39.1-.1a87.91,87.91,0,0,0,23.9-3.4c9.2-2.7,16.8-7.7,22.1-15.9a2.65,2.65,0,0,1,.5-.6C550.6,369.1,550.7,369.1,550.9,369Z" transform="translate(-180 -368.06)"/><path class="cls-3" d="M545.9,398.4a36.59,36.59,0,0,1-5.4,16.9c-4.8,7.8-11.9,12.5-20.6,15.2a69.79,69.79,0,0,1-15.8,2.8c-5.3.4-10.5.5-15.8.5-12.6,0-25.3-.1-37.9.1a82.25,82.25,0,0,0-23.6,3.5c-9,2.7-16.5,7.6-21.7,15.6-.2.3-.4.7-.9.7,1.1-16.4,11.1-28.3,27.5-32.8a85.19,85.19,0,0,1,21.3-2.7c12.4-.2,24.8-.1,37.2-.1a142.14,142.14,0,0,0,20.6-1c6.6-.9,13.1-2.3,19.1-5.2a36.82,36.82,0,0,0,14.8-12.6,5.5,5.5,0,0,1,.7-.9C545.6,398.3,545.7,398.4,545.9,398.4Z" transform="translate(-180 -368.06)"/><path class="cls-1" d="M541,426.5c-1.1,14.6-8.8,26.9-24.3,32.2a69.31,69.31,0,0,1-16.9,3.3,143.58,143.58,0,0,1-16.1.5c-12.6,0-25.3-.1-37.9.1a81.81,81.81,0,0,0-24.1,3.6c-9,2.8-16.4,7.7-21.6,15.8-.1.1-.2.3-.3.4a.77.77,0,0,0-.3.1,7,7,0,0,1,.3-3.2c2.2-13.9,10-23.4,23.2-28.3a68,68,0,0,1,19.5-3.7c11.4-.8,22.9-.3,34.3-.4,6.2-.1,12.3.1,18.5-.1a83.34,83.34,0,0,0,24.3-3.8c8.6-2.8,15.6-7.6,20.6-15.3A5.75,5.75,0,0,1,541,426.5Z" transform="translate(-180 -368.06)"/><path class="cls-3" d="M783.3,510.9c-1.7-11.5-7.3-20.5-17.5-26.4a36,36,0,0,0-6.9-3.2,76.8,76.8,0,0,0-26.8-4.3H660.5c-1.2-.2-1.7.3-1.9,1.5-.3,2-.7,3.9-1,5.9-2.7,15.2-5.3,30.4-8,45.6-1.4,7.7-2.3,15.5-1.1,23.4,1.7,11.2,7,20.1,16.9,26a43,43,0,0,0,11,4.7c.5.1,1.1.1,1.2.8h-62a21.12,21.12,0,0,1-2.6-.2c-5-.5-8.1-3.4-9.6-8.1a26.61,26.61,0,0,1-1-4.9c-.6-7.2.4-14.4,1.8-21.4,2.8-14.3,5.4-28.6,7.9-42.9,2.6-14.9,5.3-29.7,7.9-44.6,2.5-13.9,4.9-27.8,7.4-41.8,2.4-13.5,4.8-27.1,7.2-40.6.2-1,.5-1.5,1.5-1.4a9.65,9.65,0,0,0,1.7,0h32.6c2.1,0,2.1,0,2.5-2.2.3-1.9.7-3.8,1-5.7.4-3.3,1.2-3-2.4-3H593.8c-1.2-.2-1.6.4-1.8,1.6-1.7,10-3.5,20-5.3,30l-7.8,44.4c-2.5,14.1-5,28.2-7.5,42.2s-4.9,28-7.5,42c-1.4,7.7-2.5,15.3-1.7,23.1,1,9.2,4.4,17.3,11.4,23.6a43.43,43.43,0,0,0,16.5,8.9c.5.1,1.2,0,1.2.7H515.1c3.2-18.1,6.4-36,9.5-53.9s6.4-35.8,9.4-53.8H455.9a116.64,116.64,0,0,0-27.6,2.9c-17,4.2-28.2,14.5-33.1,31.3-1.9,6.4-2.9,13.1-4.1,19.7-1.6,8.9-3,17.8-4.8,26.7-1.7,8.1-3.8,16-7.3,23.5-2.8,6-6.1,11.5-12.5,14.2,1.4-.1,2.7-.3,4-.5,6.1-1.2,11.7-3.8,17.1-6.7s10.3-6.1,15.4-9.2a2.89,2.89,0,0,1,3.8.1A111.38,111.38,0,0,0,422,589a50.67,50.67,0,0,0,25,6.5q160.35-.15,320.6-.1h2.2a.91.91,0,0,0,1-.8l1.8-9.6a6.89,6.89,0,0,0-2.8-.3H702.6c-1.1,0-2.2-.1-3.3-.2-5.4-.5-8.5-3.6-10-8.6a27.55,27.55,0,0,1-1-6.4,71.8,71.8,0,0,1,1.2-15.3c1.3-7.2,2.7-14.3,4-21.4,3.1-17.3,6.1-34.6,9.2-51.9.3-1.8.3-1.8,2.1-1.8h16.6c3.4,0,6.9-.1,10.3.1,5.4.3,8.9,3.2,10.5,8.3a27.46,27.46,0,0,1,1.1,9,107.9,107.9,0,0,1-2,17.1c-1.2,6-2.3,12.1-3.5,18.1a3.45,3.45,0,0,0,1.7.2h40.8c1.9,0,2,0,2.3-1.9A55.52,55.52,0,0,0,783.3,510.9Zm-295.8-22c-2.8,16-5.7,31.9-8.5,47.9-2.7,15.5-5.5,31-8.2,46.5-.2,1.1-.5,1.6-1.8,1.6-8.7-.1-17.4.1-26.1-.1-7.4-.1-11.5-4.1-12.3-11.9a62.27,62.27,0,0,1,.8-16.7q4.05-24.3,8.4-48.6a73.21,73.21,0,0,1,4.3-15.7,28.88,28.88,0,0,1,4.2-7.2,14.13,14.13,0,0,1,11.5-5.4c9,.1,18.1,0,27.1,0a3.88,3.88,0,0,1,2.3.3C488.6,482.7,488.1,485.8,487.5,488.9Z" transform="translate(-180 -368.06)"/><path class="cls-2" d="M351.6,557.7a10.75,10.75,0,0,0-3.1-.1H189.2a9.65,9.65,0,0,1-1.7,0c-1.2-.1-1.6.4-1.8,1.6-1.5,9.6-3.1,19.2-4.7,28.9a44.23,44.23,0,0,0-1,7.3,4.35,4.35,0,0,0,2.2.3H328.1a13.36,13.36,0,0,0,9.7-4,32.43,32.43,0,0,0,6.4-9.5,100,100,0,0,0,7.2-22.5C351.5,559,352,558.4,351.6,557.7ZM231,588.8c-1.4,0-3.1.4-4.2-.2s-.9-2.4-1.2-3.7a1.5,1.5,0,0,0-1.7-1.3c-3,.1-5.9,0-8.9,0a1.88,1.88,0,0,0-1.9,1.1c-.6,1.1-1.2,2-1.8,3.1a1.88,1.88,0,0,1-1.9,1.1c-1.3-.1-2.5,0-3.7,0-.5-.7.1-1.2.3-1.6,4.4-7.1,8.9-14.2,13.2-21.4a2.78,2.78,0,0,1,2.7-1.4c3.7,0,3.7,0,4.7,3.6,1.7,6.1,3.3,12.2,5,18.2.2.8.4,1.5.6,2.5A4.65,4.65,0,0,0,231,588.8Zm18.2,0H236.7c-1.7,0-1.8-.1-1.5-1.8,1.2-7.1,2.5-14.1,3.7-21.2.2-1.1.6-1.5,1.7-1.4,1.3.1,2.5,0,4.1,0-1.1,6.6-2.2,13-3.4,19.8h11.9c.1.4.2.5.2.6C253.1,588.8,253.1,588.8,249.2,588.8Zm29.9,0c-1.4,0-3.1.4-4.2-.2s-.9-2.4-1.2-3.7a1.46,1.46,0,0,0-1.6-1.3h-8.9a1.88,1.88,0,0,0-1.9,1.1c-.6,1.1-1.2,2.1-1.8,3.1a1.88,1.88,0,0,1-1.9,1.1c-1.3-.1-2.5,0-3.8,0-.5-.7.1-1.2.3-1.6,4.4-7.1,8.9-14.2,13.2-21.4a2.78,2.78,0,0,1,2.7-1.4c3.7,0,3.7,0,4.7,3.6,1.7,6.1,3.3,12.2,5,18.2.2.8.4,1.5.6,2.5A4.65,4.65,0,0,0,279.1,588.8Zm34.4-17.6c-.9,5.3-1.8,10.6-2.7,15.8-.3,1.7-.4,1.7-2.1,1.8-3.4.1-3.4.1-2.9-3.2.6-3.6,1.2-7.2,1.9-10.9-1,.4-1.3,1.2-1.8,1.8-2.2,2.8-4.4,5.7-6.6,8.5-1.5,1.9-3.1,1.6-4.1-.6-1.2-2.6-2.3-5.3-3.5-7.9-.2-.5-.2-1.1-1.1-1.4-.5,3.1-1.1,6.1-1.6,9.1a28.68,28.68,0,0,0-.5,3.1c-.1,1.1-.5,1.6-1.6,1.5a20.18,20.18,0,0,1-3.5-.1,2,2,0,0,1-.1-1.7c1.2-7,2.5-14,3.7-21,.2-1.2.7-1.7,1.9-1.5h.7c2.7,0,2.2-.3,3.3,2.2,1.8,4.2,3.6,8.4,5.6,12.9.8-1,1.4-1.7,2-2.5,2.7-3.5,5.5-6.9,8-10.5a4.43,4.43,0,0,1,4.6-2.2,7.08,7.08,0,0,0,1.5.1C314.5,566.8,313.8,569,313.5,571.2Z" transform="translate(-180 -368.06)"/><path class="cls-4" d="M224.2,579.2h-7.8c1.8-3.1,3.5-6,5.5-9.4C222.7,573.2,223.4,576,224.2,579.2Z" transform="translate(-180 -368.06)"/><path class="cls-5" d="M264.5,579.1c1.8-3.1,3.5-5.9,5.4-9.1,1.1,3.2,1.5,6.1,2.4,9.1Z" transform="translate(-180 -368.06)"/></svg>